HIERARCHY
ROOT Hips
{
	OFFSET 0.000000 0.000000 0.000000 
	CHANNELS 6 Xposition Yposition Zposition Zrotation Yrotation Xrotation
	JOINT LeftUpLeg
	{
		OFFSET 1.363060 -1.794630 0.839290 
		CHANNELS 3 Zrotation Yrotation Xrotation
		JOINT LeftLeg
		{
			OFFSET 2.448110 -6.726130 0.000000 
			CHANNELS 3 Zrotation Yrotation Xrotation
			JOINT LeftFoot
			{
				OFFSET 2.562200 -7.039590 0.000000 
				CHANNELS 3 Zrotation Yrotation Xrotation
				JOINT LeftToeBase
				{
					OFFSET 0.157640 -0.433110 2.322550 
					CHANNELS 3 Zrotation Yrotation Xrotation
					End Site
					{
						OFFSET 0.000000 0.000000 0.000000 
					}
				}
			}
		}
	}
	JOINT RightUpLeg
	{
		OFFSET -1.305520 -1.794630 0.839290 
		CHANNELS 3 Zrotation Yrotation Xrotation
		JOINT RightLeg
		{
			OFFSET -2.542530 -6.985550 0.000000 
			CHANNELS 3 Zrotation Yrotation Xrotation
			JOINT RightFoot
			{
				OFFSET -2.568260 -7.056230 0.000000 
				CHANNELS 3 Zrotation Yrotation Xrotation
				JOINT RightToeBase
				{
					OFFSET -0.164730 -0.452590 2.363150 
					CHANNELS 3 Zrotation Yrotation Xrotation
					End Site
					{
						OFFSET 0.000000 0.000000 0.000000 
					}
				}
			}
		}
	}
	JOINT Spine
	{
		OFFSET 0.028270 2.035590 -0.193380 
		CHANNELS 3 Zrotation Yrotation Xrotation
		JOINT Spine1
		{
			OFFSET 0.056720 2.048850 -0.042750 
			CHANNELS 3 Zrotation Yrotation Xrotation
			JOINT Neck1
			{
				OFFSET -0.054170 1.746240 0.172020 
				CHANNELS 3 Zrotation Yrotation Xrotation
				JOINT Head
				{
					OFFSET 0.104070 1.761360 -0.123970 
					CHANNELS 3 Zrotation Yrotation Xrotation
					End Site
					{
						OFFSET 0.000000 0.000000 0.000000 
					}
				}
			}
			JOINT LeftArm
			{
				OFFSET 3.362410 1.200890 -0.311210 
				CHANNELS 3 Zrotation Yrotation Xrotation
				JOINT LeftForeArm
				{
					OFFSET 4.983000 -0.000000 -0.000000 
					CHANNELS 3 Zrotation Yrotation Xrotation
					JOINT LeftHand
					{
						OFFSET 3.483560 -0.000000 -0.000000 
						CHANNELS 3 Zrotation Yrotation Xrotation
						JOINT LeftHandIndex1
						{
							OFFSET 0.715260 -0.000000 -0.000000 
							CHANNELS 3 Zrotation Yrotation Xrotation
							End Site
							{
								OFFSET 0.000000 0.000000 0.000000 
							}
						}
					}
				}
			}
			JOINT RightArm
			{
				OFFSET -3.136600 1.374050 -0.404650 
				CHANNELS 3 Zrotation Yrotation Xrotation
				JOINT RightForeArm
				{
					OFFSET -5.241900 -0.000000 -0.000000 
					CHANNELS 3 Zrotation Yrotation Xrotation
					JOINT RightHand
					{
						OFFSET -3.444170 -0.000000 -0.000000 
						CHANNELS 3 Zrotation Yrotation Xrotation
						JOINT RightHandIndex1
						{
							OFFSET -0.622530 -0.000000 -0.000000 
							CHANNELS 3 Zrotation Yrotation Xrotation
							End Site
							{
								OFFSET 0.000000 0.000000 0.000000 
							}
						}
					}
				}
			}
		}
	}
}
MOTION
Frames: 6
Frame Time: 0.041667
-2.506008 17.709152 4.744390 -123.226281 -82.516639 132.846408 -9.277016 -11.165102 -23.138634 0.564922 6.653394 17.100096 -1.172012 9.597789 3.200187 0.023700 -0.993600 -2.731200 28.068611 -0.462772 -6.898697 -3.935979 -12.594305 36.565464 0.485456 -5.426399 -1.196176 -0.012400 0.717900 -1.972900 0.688892 2.998823 -5.132519 3.733130 1.148409 -1.034188 6.674620 -4.836257 9.803609 2.912500 -2.132000 8.435400 -92.589488 10.041870 1.668750 11.713213 -28.893765 -3.025289 0.983922 2.813530 34.462151 -7.125000 0.000000 0.000000 91.811795 -9.079742 -20.027011 -4.991794 12.471096 -0.324576 -0.769410 0.483118 52.202804 7.125000 0.000000 0.000000 
-2.654184 17.713213 4.753898 -126.104506 -82.557863 135.614010 -9.784589 -11.001597 -22.718643 0.590978 6.757991 17.383157 -1.148105 9.431819 3.023231 0.016400 -0.827000 -2.272800 27.532171 -0.344009 -7.560003 -4.269547 -13.021459 38.108813 0.543169 -5.893527 -0.603286 -0.014100 0.766700 -2.107200 0.693446 2.825506 -5.105352 3.807438 1.067166 -1.041699 6.548688 -4.559522 9.859306 2.865900 -2.004600 8.421000 -92.474901 9.980647 1.228235 11.496603 -28.608893 -2.970186 1.016287 2.803411 34.846723 -7.125000 0.000000 0.000000 91.549634 -10.036537 -21.403328 -4.929715 12.353824 -0.320685 -0.762531 0.477974 52.774206 7.125000 0.000000 0.000000 
-2.801369 17.717769 4.763011 -128.997402 -82.591087 138.389633 -10.299220 -10.827285 -22.275013 0.615815 6.856876 17.650443 -1.124185 9.262408 2.831815 0.011000 -0.676200 -1.858300 26.991719 -0.213996 -8.258999 -4.615583 -13.439470 39.654882 0.603872 -6.395127 -0.033605 -0.015300 0.798100 -2.193400 0.698448 2.646858 -5.077871 3.883245 0.983377 -1.050896 6.421940 -4.279826 9.916767 2.819000 -1.875800 8.407200 -92.350144 9.900038 0.783007 11.277669 -28.318552 -2.915484 1.051642 2.792388 35.239902 -7.125000 0.000000 0.000000 91.251154 -10.969374 -22.424277 -4.894261 12.292517 -0.322454 -0.758230 0.468660 53.032247 7.125000 0.000000 0.000000 
-2.947861 17.722920 4.772024 -131.890967 -82.614245 141.161237 -10.817151 -10.642456 -21.806204 0.638555 6.947484 17.894889 -1.100819 9.093779 2.624438 0.006900 -0.535600 -1.471800 26.450623 -0.072590 -8.993880 -4.971991 -13.845943 41.195816 0.666998 -6.923782 0.504618 -0.016000 0.816000 -2.242600 0.703826 2.464375 -5.050316 3.959776 0.897779 -1.062066 6.292858 -3.998080 9.976871 2.770700 -1.746400 8.394600 -92.214619 9.797426 0.333249 11.055792 -28.022181 -2.860842 1.090083 2.780261 35.641731 -7.125000 0.000000 0.000000 90.920460 -11.872650 -23.111469 -4.881542 12.279567 -0.328671 -0.756462 0.455588 52.991737 7.125000 0.000000 0.000000 
-3.093164 17.728466 4.780641 -134.769266 -82.628323 143.915774 -11.336569 -10.448986 -21.313504 0.658478 7.027529 18.109891 -1.078193 8.927592 2.403359 0.004000 -0.407800 -1.120500 25.910674 0.079760 -9.763276 -5.336048 -14.238292 42.722086 0.732534 -7.473754 1.005817 -0.016100 0.819200 -2.251600 0.710001 2.278414 -5.023146 4.037738 0.810397 -1.075817 6.163789 -3.714819 10.036793 2.722500 -1.616300 8.382000 -92.067689 9.676303 -0.107567 10.836288 -27.726578 -2.807763 1.131049 2.767614 36.041504 -7.125000 0.000000 0.000000 90.561486 -12.741172 -23.495242 -4.889010 12.309262 -0.338502 -0.756818 0.439655 52.676612 7.125000 0.000000 0.000000 
-3.237377 17.734310 4.788862 -137.621283 -82.632336 146.640253 -11.854897 -10.247608 -20.797038 0.674957 7.095413 18.290839 -1.056779 8.765555 2.166198 0.002100 -0.294000 -0.807700 25.374077 0.242892 -10.564965 -5.705106 -14.614768 44.225382 0.800167 -8.038569 1.465349 -0.015700 0.808700 -2.222600 0.716927 2.090086 -4.996009 4.117340 0.721838 -1.090369 6.033503 -3.431147 10.097564 2.673600 -1.486300 8.370300 -91.910552 9.533358 -0.541368 10.618737 -27.431151 -2.755896 1.174850 2.752903 36.442479 -7.125000 0.000000 0.000000 90.177859 -13.566709 -23.613416 -4.913808 12.375566 -0.351056 -0.759238 0.421320 52.116360 7.125000 0.000000 0.000000 
